<?xml version="1.0" encoding="UTF-8" standalone="no"?>
<!DOCTYPE svg PUBLIC "-//W3C//DTD SVG 1.1//EN" "http://www.w3.org/Graphics/SVG/1.1/DTD/svg11.dtd">
<svg width="100%" height="100%" viewBox="0 0 32 32" version="1.1" xmlns="http://www.w3.org/2000/svg" xmlns:xlink="http://www.w3.org/1999/xlink" xml:space="preserve" xmlns:serif="http://www.serif.com/" style="fill-rule:evenodd;clip-rule:evenodd;stroke-linejoin:round;stroke-miterlimit:2;">
    <g transform="matrix(1,0,0,0.792888,0,5.59202)">
        <path d="M13,7L16,7L16,5L13,5C11.849,5.006 10.754,5.51 10,6.38C9.246,5.51 8.151,5.006 7,5L4,5L4,7L7,7C8.097,7 9,7.903 9,9L9,14L5,14L5,16L9,16L9,23C9,24.097 8.097,25 7,25L4,25L4,27L7,27C8.151,26.994 9.246,26.49 10,25.62C10.754,26.49 11.849,26.994 13,27L16,27L16,25L13,25C11.903,25 11,24.097 11,23L11,16L15,16L15,14L11,14L11,9C11,7.903 11.903,7 13,7Z" style="fill-rule:nonzero;"/>
    </g>
    <rect id="_Transparent_Rectangle_" x="0" y="0" width="32" height="32" style="fill:none;"/>
    <g transform="matrix(1,0,0,1,-0.711488,11.1754)">
        <text x="18.032px" y="15.794px" style="font-family:'ArialMT', 'Arial', sans-serif;font-size:20px;fill:rgb(255,44,0);">x</text>
    </g>
</svg>
